<?xml version="1.0" standalone="no"?>
<!DOCTYPE svg PUBLIC "-//W3C//DTD SVG 20010904//EN"
 "http://www.w3.org/TR/2001/REC-SVG-20010904/DTD/svg10.dtd">
<svg version="1.0" xmlns="http://www.w3.org/2000/svg"
 width="260.000000pt" height="260.000000pt" viewBox="0 0 260.000000 260.000000"
 preserveAspectRatio="xMidYMid meet">
<metadata>
Created by potrace 1.14, written by Peter Selinger 2001-2017
</metadata>
<g transform="translate(0.000000,260.000000) scale(0.100000,-0.100000)"
fill="#000000" stroke="none">
<path d="M857 2204 c-1 -1 -45 -4 -97 -7 -53 -3 -108 -11 -123 -16 -30 -12
-29 -2 -31 -184 -1 -125 0 -128 22 -134 19 -4 22 -12 22 -53 0 -47 -1 -48 -43
-64 -49 -18 -78 -48 -104 -103 -16 -35 -17 -95 -19 -693 -2 -472 1 -665 9
-690 14 -42 51 -57 172 -69 171 -18 687 -9 785 14 14 3 160 5 325 5 230 -1
304 2 318 12 16 12 17 47 15 548 l-3 535 -24 32 c-13 17 -45 42 -72 54 -61 29
-93 89 -48 89 20 0 20 3 14 128 -11 199 -11 202 -45 202 -31 0 -46 60 -54 214
-4 69 -8 82 -28 98 -33 25 -81 23 -108 -5 -20 -21 -23 -36 -27 -127 -2 -56 -8
-111 -13 -121 -6 -10 -10 -27 -10 -38 0 -16 -6 -21 -24 -21 -29 0 -38 -22 -41
-100 -1 -30 -6 -92 -9 -138 -7 -80 -6 -84 14 -89 37 -10 22 -53 -30 -84 -25
-15 -48 -28 -52 -28 -5 -1 -8 39 -8 89 0 168 -37 252 -124 285 -46 18 -46 18
-46 65 0 42 3 49 25 54 24 6 24 6 24 139 0 72 -3 142 -6 154 -5 22 -21 27
-123 39 -46 5 -427 12 -433 8z"/>
</g>
</svg>
